<mxfile host="app.diagrams.net" modified="2023-10-30T12:23:33.403Z" agent="Mozilla/5.0 (Macintosh; Intel Mac OS X 10_15_7) AppleWebKit/537.36 (KHTML, like Gecko) Chrome/118.0.0.0 Safari/537.36" etag="iEgnMj6FuMJc_gtxkl3u" version="22.0.8" type="github">
  <diagram name="Page-1" id="wJOz5yw01Spc_Gum1Rpd">
    <mxGraphModel dx="954" dy="556" grid="1" gridSize="10" guides="1" tooltips="1" connect="1" arrows="1" fold="1" page="1" pageScale="1" pageWidth="850" pageHeight="1100" math="0" shadow="0">
      <root>
        <mxCell id="0" />
        <mxCell id="1" parent="0" />
        <mxCell id="p7StNIV0vs3r8MqPnfQ6-1" value="Open Layer (MAP)" style="ellipse;whiteSpace=wrap;html=1;aspect=fixed;" vertex="1" parent="1">
          <mxGeometry x="130" y="180" width="80" height="80" as="geometry" />
        </mxCell>
        <mxCell id="p7StNIV0vs3r8MqPnfQ6-2" value="" style="endArrow=none;html=1;rounded=0;exitX=1;exitY=0.5;exitDx=0;exitDy=0;" edge="1" parent="1" source="p7StNIV0vs3r8MqPnfQ6-1">
          <mxGeometry width="50" height="50" relative="1" as="geometry">
            <mxPoint x="220" y="220" as="sourcePoint" />
            <mxPoint x="420" y="220" as="targetPoint" />
          </mxGeometry>
        </mxCell>
        <mxCell id="p7StNIV0vs3r8MqPnfQ6-3" value="La Salle Website (SRC)" style="ellipse;whiteSpace=wrap;html=1;aspect=fixed;" vertex="1" parent="1">
          <mxGeometry x="430" y="185" width="75" height="75" as="geometry" />
        </mxCell>
        <mxCell id="p7StNIV0vs3r8MqPnfQ6-5" value="Excel&amp;nbsp;" style="ellipse;whiteSpace=wrap;html=1;aspect=fixed;" vertex="1" parent="1">
          <mxGeometry x="50" y="290" width="80" height="80" as="geometry" />
        </mxCell>
        <mxCell id="p7StNIV0vs3r8MqPnfQ6-6" value="" style="endArrow=none;html=1;rounded=0;" edge="1" parent="1" target="p7StNIV0vs3r8MqPnfQ6-1">
          <mxGeometry width="50" height="50" relative="1" as="geometry">
            <mxPoint x="100" y="300" as="sourcePoint" />
            <mxPoint x="130" y="270" as="targetPoint" />
          </mxGeometry>
        </mxCell>
        <mxCell id="p7StNIV0vs3r8MqPnfQ6-7" value="" style="endArrow=none;html=1;rounded=0;exitX=0.788;exitY=0.95;exitDx=0;exitDy=0;exitPerimeter=0;" edge="1" parent="1" source="p7StNIV0vs3r8MqPnfQ6-1">
          <mxGeometry width="50" height="50" relative="1" as="geometry">
            <mxPoint x="400" y="380" as="sourcePoint" />
            <mxPoint x="210" y="320" as="targetPoint" />
          </mxGeometry>
        </mxCell>
      </root>
    </mxGraphModel>
  </diagram>
</mxfile>
